<mxfile host="app.diagrams.net" modified="2024-01-17T13:36:46.303Z" agent="Mozilla/5.0 (Windows NT 10.0; Win64; x64) AppleWebKit/537.36 (KHTML, like Gecko) Chrome/120.0.0.0 Safari/537.36" etag="gR5IgpeQyZbjdsDARlIt" version="22.1.18" type="github">
  <diagram name="Page-1" id="V_j2YTDmRXdUMuRriUNS">
    <mxGraphModel dx="1050" dy="522" grid="1" gridSize="10" guides="1" tooltips="1" connect="1" arrows="1" fold="1" page="1" pageScale="1" pageWidth="827" pageHeight="1169" math="0" shadow="0">
      <root>
        <mxCell id="0" />
        <mxCell id="1" parent="0" />
        <mxCell id="JTyZw9UrBL1_n-qeeQsd-26" value="" style="edgeStyle=orthogonalEdgeStyle;shape=connector;rounded=0;orthogonalLoop=1;jettySize=auto;html=1;labelBackgroundColor=default;strokeColor=default;align=center;verticalAlign=middle;fontFamily=Helvetica;fontSize=11;fontColor=default;endArrow=classic;" edge="1" parent="1" source="JTyZw9UrBL1_n-qeeQsd-1" target="JTyZw9UrBL1_n-qeeQsd-25">
          <mxGeometry relative="1" as="geometry" />
        </mxCell>
        <mxCell id="JTyZw9UrBL1_n-qeeQsd-42" value="" style="edgeStyle=orthogonalEdgeStyle;shape=connector;rounded=0;orthogonalLoop=1;jettySize=auto;html=1;labelBackgroundColor=default;strokeColor=default;align=center;verticalAlign=middle;fontFamily=Helvetica;fontSize=11;fontColor=default;endArrow=classic;" edge="1" parent="1" source="JTyZw9UrBL1_n-qeeQsd-1" target="JTyZw9UrBL1_n-qeeQsd-41">
          <mxGeometry relative="1" as="geometry" />
        </mxCell>
        <mxCell id="JTyZw9UrBL1_n-qeeQsd-1" value="" style="rounded=0;whiteSpace=wrap;html=1;" vertex="1" parent="1">
          <mxGeometry x="324" y="170" width="180" height="110" as="geometry" />
        </mxCell>
        <mxCell id="JTyZw9UrBL1_n-qeeQsd-4" style="edgeStyle=orthogonalEdgeStyle;rounded=0;orthogonalLoop=1;jettySize=auto;html=1;exitX=0.54;exitY=1.004;exitDx=0;exitDy=0;exitPerimeter=0;" edge="1" parent="1" source="JTyZw9UrBL1_n-qeeQsd-1">
          <mxGeometry relative="1" as="geometry">
            <mxPoint x="330" y="350" as="targetPoint" />
            <Array as="points">
              <mxPoint x="330" y="280" />
              <mxPoint x="330" y="330" />
            </Array>
          </mxGeometry>
        </mxCell>
        <mxCell id="JTyZw9UrBL1_n-qeeQsd-2" value="Poudlard Shop" style="text;html=1;strokeColor=none;fillColor=none;align=center;verticalAlign=middle;whiteSpace=wrap;rounded=0;" vertex="1" parent="1">
          <mxGeometry x="356" y="190" width="116" height="70" as="geometry" />
        </mxCell>
        <mxCell id="JTyZw9UrBL1_n-qeeQsd-9" value="" style="rounded=0;whiteSpace=wrap;html=1;fontFamily=Helvetica;fontSize=11;fontColor=default;" vertex="1" parent="1">
          <mxGeometry x="260" y="350" width="120" height="60" as="geometry" />
        </mxCell>
        <mxCell id="JTyZw9UrBL1_n-qeeQsd-10" value="Accueil" style="text;html=1;strokeColor=none;fillColor=none;align=center;verticalAlign=middle;whiteSpace=wrap;rounded=0;fontSize=11;fontFamily=Helvetica;fontColor=default;" vertex="1" parent="1">
          <mxGeometry x="290" y="365" width="60" height="30" as="geometry" />
        </mxCell>
        <mxCell id="JTyZw9UrBL1_n-qeeQsd-12" style="edgeStyle=orthogonalEdgeStyle;rounded=0;orthogonalLoop=1;jettySize=auto;html=1;exitX=0.54;exitY=1.004;exitDx=0;exitDy=0;exitPerimeter=0;" edge="1" parent="1">
          <mxGeometry relative="1" as="geometry">
            <mxPoint x="480" y="350" as="targetPoint" />
            <mxPoint x="505" y="280" as="sourcePoint" />
            <Array as="points">
              <mxPoint x="480" y="280" />
            </Array>
          </mxGeometry>
        </mxCell>
        <mxCell id="JTyZw9UrBL1_n-qeeQsd-16" value="" style="edgeStyle=orthogonalEdgeStyle;shape=connector;rounded=0;orthogonalLoop=1;jettySize=auto;html=1;labelBackgroundColor=default;strokeColor=default;align=center;verticalAlign=middle;fontFamily=Helvetica;fontSize=11;fontColor=default;endArrow=classic;" edge="1" parent="1" source="JTyZw9UrBL1_n-qeeQsd-13" target="JTyZw9UrBL1_n-qeeQsd-15">
          <mxGeometry relative="1" as="geometry" />
        </mxCell>
        <mxCell id="JTyZw9UrBL1_n-qeeQsd-13" value="Produit" style="rounded=0;whiteSpace=wrap;html=1;fontFamily=Helvetica;fontSize=11;fontColor=default;" vertex="1" parent="1">
          <mxGeometry x="420" y="350" width="120" height="60" as="geometry" />
        </mxCell>
        <mxCell id="JTyZw9UrBL1_n-qeeQsd-14" value="1" style="text;html=1;strokeColor=none;fillColor=none;align=center;verticalAlign=middle;whiteSpace=wrap;rounded=0;fontSize=11;fontFamily=Helvetica;fontColor=default;" vertex="1" parent="1">
          <mxGeometry x="310" y="280" width="60" height="30" as="geometry" />
        </mxCell>
        <mxCell id="JTyZw9UrBL1_n-qeeQsd-18" value="" style="edgeStyle=orthogonalEdgeStyle;shape=connector;rounded=0;orthogonalLoop=1;jettySize=auto;html=1;labelBackgroundColor=default;strokeColor=default;align=center;verticalAlign=middle;fontFamily=Helvetica;fontSize=11;fontColor=default;endArrow=classic;" edge="1" parent="1" source="JTyZw9UrBL1_n-qeeQsd-15" target="JTyZw9UrBL1_n-qeeQsd-17">
          <mxGeometry relative="1" as="geometry" />
        </mxCell>
        <mxCell id="JTyZw9UrBL1_n-qeeQsd-20" value="" style="edgeStyle=orthogonalEdgeStyle;shape=connector;rounded=0;orthogonalLoop=1;jettySize=auto;html=1;labelBackgroundColor=default;strokeColor=default;align=center;verticalAlign=middle;fontFamily=Helvetica;fontSize=11;fontColor=default;endArrow=classic;" edge="1" parent="1" source="JTyZw9UrBL1_n-qeeQsd-15" target="JTyZw9UrBL1_n-qeeQsd-19">
          <mxGeometry relative="1" as="geometry" />
        </mxCell>
        <mxCell id="JTyZw9UrBL1_n-qeeQsd-15" value="liste de produit&lt;br&gt;" style="rounded=0;whiteSpace=wrap;html=1;fontFamily=Helvetica;fontSize=11;fontColor=default;" vertex="1" parent="1">
          <mxGeometry x="420" y="460" width="120" height="60" as="geometry" />
        </mxCell>
        <mxCell id="JTyZw9UrBL1_n-qeeQsd-24" value="" style="edgeStyle=orthogonalEdgeStyle;shape=connector;rounded=0;orthogonalLoop=1;jettySize=auto;html=1;labelBackgroundColor=default;strokeColor=default;align=center;verticalAlign=middle;fontFamily=Helvetica;fontSize=11;fontColor=default;endArrow=classic;" edge="1" parent="1" source="JTyZw9UrBL1_n-qeeQsd-17" target="JTyZw9UrBL1_n-qeeQsd-23">
          <mxGeometry relative="1" as="geometry" />
        </mxCell>
        <mxCell id="JTyZw9UrBL1_n-qeeQsd-17" value="dÃ©tails" style="rounded=0;whiteSpace=wrap;html=1;fontFamily=Helvetica;fontSize=11;fontColor=default;" vertex="1" parent="1">
          <mxGeometry x="310" y="570" width="120" height="60" as="geometry" />
        </mxCell>
        <mxCell id="JTyZw9UrBL1_n-qeeQsd-19" value="achat" style="rounded=0;whiteSpace=wrap;html=1;fontFamily=Helvetica;fontSize=11;fontColor=default;" vertex="1" parent="1">
          <mxGeometry x="530" y="570" width="120" height="60" as="geometry" />
        </mxCell>
        <mxCell id="JTyZw9UrBL1_n-qeeQsd-23" value="achat" style="rounded=0;whiteSpace=wrap;html=1;fontFamily=Helvetica;fontSize=11;fontColor=default;" vertex="1" parent="1">
          <mxGeometry x="310" y="710" width="120" height="60" as="geometry" />
        </mxCell>
        <mxCell id="JTyZw9UrBL1_n-qeeQsd-36" value="" style="edgeStyle=orthogonalEdgeStyle;shape=connector;rounded=0;orthogonalLoop=1;jettySize=auto;html=1;labelBackgroundColor=default;strokeColor=default;align=center;verticalAlign=middle;fontFamily=Helvetica;fontSize=11;fontColor=default;endArrow=classic;" edge="1" parent="1" source="JTyZw9UrBL1_n-qeeQsd-25" target="JTyZw9UrBL1_n-qeeQsd-35">
          <mxGeometry relative="1" as="geometry" />
        </mxCell>
        <mxCell id="JTyZw9UrBL1_n-qeeQsd-25" value="Inscription" style="rounded=0;whiteSpace=wrap;html=1;" vertex="1" parent="1">
          <mxGeometry x="584" y="200" width="106" height="50" as="geometry" />
        </mxCell>
        <mxCell id="JTyZw9UrBL1_n-qeeQsd-27" value="1" style="text;html=1;strokeColor=none;fillColor=none;align=center;verticalAlign=middle;whiteSpace=wrap;rounded=0;fontSize=11;fontFamily=Helvetica;fontColor=default;" vertex="1" parent="1">
          <mxGeometry x="460" y="280" width="60" height="30" as="geometry" />
        </mxCell>
        <mxCell id="JTyZw9UrBL1_n-qeeQsd-29" value="2" style="text;html=1;strokeColor=none;fillColor=none;align=center;verticalAlign=middle;whiteSpace=wrap;rounded=0;fontSize=11;fontFamily=Helvetica;fontColor=default;" vertex="1" parent="1">
          <mxGeometry x="460" y="410" width="60" height="30" as="geometry" />
        </mxCell>
        <mxCell id="JTyZw9UrBL1_n-qeeQsd-32" value="3&lt;br&gt;" style="text;html=1;strokeColor=none;fillColor=none;align=center;verticalAlign=middle;whiteSpace=wrap;rounded=0;fontSize=11;fontFamily=Helvetica;fontColor=default;" vertex="1" parent="1">
          <mxGeometry x="460" y="520" width="60" height="30" as="geometry" />
        </mxCell>
        <mxCell id="JTyZw9UrBL1_n-qeeQsd-33" value="4" style="text;html=1;strokeColor=none;fillColor=none;align=center;verticalAlign=middle;whiteSpace=wrap;rounded=0;fontSize=11;fontFamily=Helvetica;fontColor=default;" vertex="1" parent="1">
          <mxGeometry x="354" y="630" width="60" height="30" as="geometry" />
        </mxCell>
        <mxCell id="JTyZw9UrBL1_n-qeeQsd-34" value="1" style="text;html=1;strokeColor=none;fillColor=none;align=center;verticalAlign=middle;whiteSpace=wrap;rounded=0;fontSize=11;fontFamily=Helvetica;fontColor=default;" vertex="1" parent="1">
          <mxGeometry x="480" y="200" width="60" height="30" as="geometry" />
        </mxCell>
        <mxCell id="JTyZw9UrBL1_n-qeeQsd-39" value="" style="edgeStyle=orthogonalEdgeStyle;shape=connector;rounded=0;orthogonalLoop=1;jettySize=auto;html=1;labelBackgroundColor=default;strokeColor=default;align=center;verticalAlign=middle;fontFamily=Helvetica;fontSize=11;fontColor=default;endArrow=classic;" edge="1" parent="1" source="JTyZw9UrBL1_n-qeeQsd-35" target="JTyZw9UrBL1_n-qeeQsd-38">
          <mxGeometry relative="1" as="geometry" />
        </mxCell>
        <mxCell id="JTyZw9UrBL1_n-qeeQsd-35" value="Connexion" style="rounded=0;whiteSpace=wrap;html=1;" vertex="1" parent="1">
          <mxGeometry x="584" y="300" width="106" height="50" as="geometry" />
        </mxCell>
        <mxCell id="JTyZw9UrBL1_n-qeeQsd-37" value="2" style="text;html=1;strokeColor=none;fillColor=none;align=center;verticalAlign=middle;whiteSpace=wrap;rounded=0;fontSize=11;fontFamily=Helvetica;fontColor=default;" vertex="1" parent="1">
          <mxGeometry x="620" y="250" width="60" height="30" as="geometry" />
        </mxCell>
        <mxCell id="JTyZw9UrBL1_n-qeeQsd-38" value="Accueil" style="rounded=0;whiteSpace=wrap;html=1;" vertex="1" parent="1">
          <mxGeometry x="584" y="395" width="106" height="50" as="geometry" />
        </mxCell>
        <mxCell id="JTyZw9UrBL1_n-qeeQsd-40" value="3" style="text;html=1;strokeColor=none;fillColor=none;align=center;verticalAlign=middle;whiteSpace=wrap;rounded=0;fontSize=11;fontFamily=Helvetica;fontColor=default;" vertex="1" parent="1">
          <mxGeometry x="620" y="350" width="60" height="30" as="geometry" />
        </mxCell>
        <mxCell id="JTyZw9UrBL1_n-qeeQsd-41" value="page 404" style="rounded=0;whiteSpace=wrap;html=1;" vertex="1" parent="1">
          <mxGeometry x="120" y="195" width="114" height="60" as="geometry" />
        </mxCell>
        <mxCell id="JTyZw9UrBL1_n-qeeQsd-43" value="1" style="text;html=1;strokeColor=none;fillColor=none;align=center;verticalAlign=middle;whiteSpace=wrap;rounded=0;fontSize=11;fontFamily=Helvetica;fontColor=default;" vertex="1" parent="1">
          <mxGeometry x="280" y="200" width="60" height="30" as="geometry" />
        </mxCell>
      </root>
    </mxGraphModel>
  </diagram>
</mxfile>
